<svg id="Layer_1" data-name="Layer 1" xmlns="http://www.w3.org/2000/svg" xmlns:xlink="http://www.w3.org/1999/xlink" viewBox="0 0 566.1 357.37"><defs><style>.cls-1{fill:#95bed5;}.cls-2{fill:#71bf92;}.cls-3{fill:#fee184;}.cls-4{fill:url(#linear-gradient);}.cls-5{fill:url(#linear-gradient-2);}.cls-6{fill:none;stroke:#1d1d1b;stroke-miterlimit:10;}.cls-7{fill:url(#linear-gradient-3);}.cls-8{fill:url(#linear-gradient-4);}.cls-9{fill:url(#linear-gradient-5);}.cls-10{fill:#fff;}</style><linearGradient id="linear-gradient" x1="355.98" y1="44.13" x2="566.1" y2="44.13" gradientUnits="userSpaceOnUse"><stop offset="0.32" stop-color="#fee184"/><stop offset="0.81" stop-color="#eb5c58"/></linearGradient><linearGradient id="linear-gradient-2" x1="533.84" y1="332.37" x2="533.84" y2="332.37" gradientUnits="userSpaceOnUse"><stop offset="0" stop-color="#95bed5"/><stop offset="1" stop-color="#dba2ca"/></linearGradient><linearGradient id="linear-gradient-3" x1="254.25" y1="208.36" x2="398.88" y2="36" gradientUnits="userSpaceOnUse"><stop offset="0.38" stop-color="#71bf92"/><stop offset="0.46" stop-color="#80c390"/><stop offset="0.62" stop-color="#a8cc8c"/><stop offset="0.83" stop-color="#e9dc86"/><stop offset="0.9" stop-color="#fee184"/></linearGradient><linearGradient id="linear-gradient-4" x1="265.09" y1="139.57" x2="393.9" y2="323.54" gradientUnits="userSpaceOnUse"><stop offset="0.32" stop-color="#71bf92"/><stop offset="0.84" stop-color="#95bed5"/></linearGradient><linearGradient id="linear-gradient-5" x1="419.29" y1="269.66" x2="502.79" y2="342.25" gradientUnits="userSpaceOnUse"><stop offset="0" stop-color="#95bed5"/><stop offset="0.25" stop-color="#a2b9d3"/><stop offset="0.71" stop-color="#c3acce"/><stop offset="1" stop-color="#dba2ca"/></linearGradient></defs><polygon class="cls-1" points="426.1 261.82 444.6 272.02 379.72 341.91 355.98 350.09 350.45 332.68 409.79 261.06 426.1 261.82"/><polygon class="cls-2" points="214.49 175 230.18 163.62 347.55 162.04 355.36 175 351.77 186.57 233.61 182.37 214.49 175"/><polygon class="cls-3" points="355.98 0 353.42 17.65 406.03 86.48 426.1 88.27 436.49 76.79 380.71 4.59 355.98 0"/><polyline class="cls-4" points="426.1 88.27 495.98 88.27 566.1 0 495.98 0 355.98 0"/><path class="cls-5" d="M533.84,332.37" transform="translate(33.84 -71.31)"/><path class="cls-6" d="M323.1,245.55" transform="translate(33.84 -71.31)"/><polygon class="cls-7" points="355.98 0 214.49 175 355.36 175 426.1 88.27 355.98 0"/><polygon class="cls-8" points="214.49 175 355.98 350.09 426.1 261.82 355.36 175 214.49 175"/><polygon class="cls-9" points="355.98 350.09 495.98 350.09 566.1 261.82 426.1 261.82 355.98 350.09"/><polygon class="cls-10" points="0 7.37 0 179.89 142.73 357.37 282.98 357.37 0 7.37"/></svg>