<?xml version="1.0" standalone="no"?>
<!DOCTYPE svg PUBLIC "-//W3C//DTD SVG 20010904//EN"
 "http://www.w3.org/TR/2001/REC-SVG-20010904/DTD/svg10.dtd">
<svg version="1.0" xmlns="http://www.w3.org/2000/svg"
 width="1132.000000pt" height="1132.000000pt" viewBox="0 0 1132.000000 1132.000000"
 preserveAspectRatio="xMidYMid meet">
<metadata>
Created by potrace 1.14, written by Peter Selinger 2001-2017
</metadata>
<g transform="translate(0.000000,1132.000000) scale(0.100000,-0.100000)"
fill="#000000" stroke="none">
<path d="M7108 9222 c-3 -10 -64 -85 -88 -111 -9 -9 -31 -38 -49 -64 -19 -26
-38 -47 -42 -47 -4 0 -10 -8 -13 -17 -3 -10 -21 -35 -40 -55 -19 -20 -55 -64
-80 -97 -26 -33 -52 -66 -59 -73 -6 -7 -30 -36 -52 -63 -22 -28 -44 -55 -50
-62 -5 -7 -14 -18 -20 -25 -28 -37 -90 -114 -95 -118 -3 -3 -50 -61 -105 -130
-102 -128 -119 -148 -145 -180 -8 -10 -28 -35 -45 -56 -16 -21 -38 -46 -47
-56 -10 -10 -18 -22 -18 -27 0 -5 -4 -11 -8 -13 -4 -1 -64 -73 -132 -158 -69
-85 -127 -157 -130 -160 -3 -3 -21 -25 -40 -50 -19 -25 -42 -52 -52 -61 -10
-9 -18 -20 -18 -24 0 -4 -15 -24 -32 -44 -18 -21 -46 -54 -63 -75 -16 -21 -35
-43 -41 -50 -5 -6 -38 -46 -72 -89 -34 -44 -68 -85 -75 -93 -14 -15 -19 -22
-67 -84 -19 -25 -37 -47 -40 -50 -5 -4 -64 -78 -95 -118 -5 -7 -16 -19 -22
-26 -7 -8 -40 -48 -73 -90 -66 -83 -64 -81 -142 -176 -29 -36 -57 -71 -63 -78
-5 -7 -20 -24 -32 -37 -13 -13 -23 -27 -23 -29 0 -5 -23 -35 -55 -70 -6 -6
-46 -56 -90 -111 -44 -55 -82 -102 -85 -105 -3 -3 -50 -61 -105 -130 -105
-132 -124 -155 -140 -174 -5 -6 -48 -57 -93 -114 -86 -106 -87 -108 -52 -142
3 -3 45 -54 93 -115 48 -60 96 -119 106 -130 9 -11 44 -54 76 -95 33 -41 64
-80 70 -86 5 -6 21 -26 35 -44 14 -18 35 -44 48 -59 13 -14 37 -45 54 -68 17
-24 35 -43 39 -43 4 0 10 -8 13 -17 3 -10 21 -34 38 -54 18 -19 45 -51 60 -71
15 -20 33 -42 40 -50 7 -7 29 -34 48 -58 46 -59 61 -78 85 -106 11 -12 29 -35
40 -50 11 -15 25 -32 30 -38 6 -6 50 -60 98 -121 49 -60 96 -119 105 -130 9
-11 35 -42 56 -70 22 -27 43 -51 48 -53 4 -2 8 -8 8 -12 0 -5 10 -20 23 -32
12 -13 34 -39 49 -58 14 -19 36 -46 47 -60 11 -14 24 -29 28 -35 26 -32 139
-172 148 -181 5 -6 17 -22 25 -34 8 -12 34 -43 57 -69 24 -25 43 -49 43 -53 0
-4 6 -13 13 -20 11 -10 136 -165 190 -233 4 -5 17 -21 28 -35 44 -52 82 -100
215 -265 75 -93 140 -171 145 -173 5 -2 9 -8 9 -13 0 -9 20 -35 55 -73 11 -12
33 -39 50 -61 16 -22 34 -45 40 -51 5 -6 24 -28 40 -49 17 -21 41 -52 55 -69
14 -17 32 -39 40 -49 8 -10 22 -27 30 -37 8 -10 29 -35 45 -56 17 -21 64 -79
105 -129 103 -126 120 -148 120 -155 0 -3 632 -5 1404 -5 l1405 0 23 30 c12
17 26 32 30 33 5 2 8 8 8 13 0 5 8 17 18 27 30 32 62 72 62 78 0 3 6 11 13 18
6 7 27 31 45 54 19 23 41 50 50 61 10 11 30 38 46 61 17 22 33 40 38 40 4 0 8
4 8 9 0 5 59 83 130 173 72 90 141 176 153 191 12 16 29 37 37 46 8 10 26 33
40 51 29 39 68 87 92 115 10 11 61 76 115 145 54 69 104 132 111 140 7 8 55
69 107 135 111 141 91 115 193 243 l82 102 -43 0 c-23 1 -653 1 -1399 1
l-1357 1 -38 46 c-21 26 -42 52 -48 58 -5 6 -21 26 -35 44 -14 18 -30 38 -36
44 -9 10 -122 149 -249 307 -30 36 -60 72 -67 80 -7 8 -25 30 -39 49 -15 19
-43 53 -62 75 -20 22 -37 43 -37 47 0 3 -13 20 -30 36 -16 17 -30 35 -30 40 0
6 -3 12 -7 14 -7 3 -90 102 -196 232 -64 78 -82 101 -97 119 -8 11 -20 24 -25
31 -6 6 -26 31 -44 56 -19 25 -39 50 -45 55 -6 6 -38 44 -71 85 -33 41 -67 84
-77 95 -52 62 -178 220 -178 225 0 5 45 61 114 140 12 14 32 41 46 60 13 19
29 40 35 45 7 6 52 60 101 120 48 61 93 115 99 122 5 7 15 18 20 25 20 25 100
123 105 128 3 3 32 39 65 80 32 41 63 77 67 78 4 2 8 10 8 18 0 8 4 14 8 14 5
0 36 35 70 78 33 42 69 86 79 97 10 11 30 36 45 57 15 20 33 42 40 50 7 7 40
47 73 88 65 80 94 116 110 134 6 6 26 31 45 56 19 25 37 47 40 50 5 5 114 137
178 218 15 18 35 43 45 54 17 21 20 21 716 22 l699 1 21 25 c11 14 24 30 28
35 92 118 120 153 132 166 9 9 25 29 36 45 30 42 69 89 78 92 4 2 7 8 7 13 0
5 9 20 20 32 20 22 57 68 115 142 17 21 41 52 55 69 14 17 28 36 33 41 9 13
119 150 191 240 14 17 72 91 131 165 58 74 114 144 123 155 9 12 39 50 67 85
27 36 62 78 77 94 15 17 28 34 28 39 0 6 6 15 14 21 7 6 59 70 116 141 56 72
110 138 118 148 14 16 -86 17 -2091 17 -1158 0 -2107 -4 -2109 -8z"/>
<path d="M0 7348 l0 -1723 35 -40 c19 -22 39 -44 43 -50 10 -13 334 -417 374
-467 16 -20 37 -46 46 -56 10 -11 44 -54 77 -96 32 -42 63 -76 67 -76 4 0 8
-6 8 -12 0 -7 15 -29 33 -48 18 -19 44 -51 57 -70 13 -19 27 -37 30 -40 3 -3
25 -30 50 -60 24 -30 50 -62 57 -70 16 -18 108 -134 143 -179 14 -17 34 -43
45 -55 11 -13 32 -39 47 -57 135 -171 243 -305 247 -309 4 -3 18 -21 32 -40
15 -19 35 -45 45 -56 11 -12 30 -36 44 -55 14 -18 32 -40 40 -49 8 -9 37 -45
65 -81 53 -68 69 -87 99 -122 10 -12 30 -38 45 -57 14 -19 31 -40 36 -46 13
-14 59 -71 125 -154 28 -36 58 -74 68 -85 9 -11 70 -87 136 -170 67 -82 128
-159 138 -170 9 -11 54 -67 100 -125 182 -228 341 -425 347 -430 3 -3 19 -23
36 -45 16 -22 32 -42 35 -45 3 -3 28 -33 54 -67 l49 -63 1406 0 c1377 1 1406
1 1384 19 -13 11 -23 22 -23 25 0 4 -30 44 -67 89 -38 45 -73 89 -80 97 -70
87 -158 196 -163 200 -3 3 -64 78 -135 168 -71 89 -132 162 -137 162 -4 0 -8
4 -8 10 0 8 -200 262 -220 280 -3 3 -21 25 -40 50 -19 25 -37 47 -40 50 -3 3
-23 28 -45 55 -21 28 -42 52 -45 55 -3 3 -18 23 -35 45 -16 21 -39 51 -52 65
-43 48 -213 260 -213 265 0 3 -10 16 -22 29 -13 12 -36 39 -53 60 -16 22 -34
44 -40 50 -5 6 -55 67 -110 136 -55 69 -131 164 -170 211 -38 47 -81 100 -95
118 -14 18 -30 38 -35 44 -6 7 -38 46 -70 87 -33 41 -64 80 -70 86 -5 6 -26
30 -45 54 -74 93 -176 219 -197 247 -13 15 -36 44 -53 63 -16 19 -33 40 -37
45 -5 6 -64 80 -133 165 -69 85 -130 162 -137 170 -6 8 -36 44 -65 80 -29 36
-56 70 -61 75 -4 6 -17 21 -28 35 -12 14 -33 41 -48 60 -14 19 -31 40 -36 46
-6 6 -92 112 -190 234 -99 123 -188 232 -198 242 -9 10 -17 22 -17 27 0 5 -3
11 -8 13 -6 3 -72 80 -109 128 -6 8 -45 56 -85 105 -41 50 -112 137 -157 195
-46 58 -87 107 -90 110 -3 3 -18 21 -32 40 -15 19 -36 46 -48 60 -11 14 -24
30 -29 35 -4 6 -93 116 -197 245 -104 129 -197 244 -205 254 -8 10 -22 26 -30
35 -8 9 -26 32 -40 51 -14 19 -32 42 -40 51 -17 18 -29 33 -80 99 -19 25 -43
52 -52 61 -10 9 -18 19 -18 23 0 4 -11 19 -25 34 -23 25 -53 62 -115 142 -14
18 -37 46 -52 62 -16 16 -28 31 -28 35 0 3 -15 22 -32 43 -35 39 -43 49 -98
120 -19 24 -39 50 -45 56 -5 6 -26 30 -45 54 -19 24 -40 48 -45 54 -6 6 -33
40 -60 76 -27 36 -52 67 -55 70 -6 4 -65 77 -275 338 -5 7 -14 18 -20 25 -5 7
-28 35 -50 62 -22 28 -44 55 -50 61 -5 6 -21 26 -35 44 -14 18 -33 42 -43 54
-10 11 -28 34 -40 49 -12 16 -34 43 -49 60 -15 18 -28 35 -28 40 0 4 -4 7 -10
7 -7 0 -10 -581 -10 -1722z"/>
</g>
</svg>
